PathFileType	4	(X/Y/Z)	/home/abdul/Desktop/myosuite/custom_workspace/IK/output/S11_12_2.trc
DataRate	CameraRate	NumFrames	NumMarkers	Units	OrigDataRate	OrigDataStartFrame	OrigNumFrames
200.0	200.0	22	3	mm	200.0	938	1500
Frame#	Time	V_Shoulder			V_Elbow			V_Wrist		
		X1	Y1	Z1	X2	Y2	Z2	X3	Y3	Z3

938	4.685	-113.28042754884656	570.7550581340682	287.5160990189288	-278.342902032077	379.84699707188247	45.41515541340459	-132.81780400422733	175.72957015738666	114.55379323708483
939	4.69	-113.30412802845298	570.5481201080391	287.37482064013375	-278.0134988785682	379.59282396587446	44.87675474464987	-132.61380531942433	175.28624019213248	113.59826787911787
940	4.695	-113.32703879494835	570.343424846716	287.2332430899441	-277.68254664671605	379.3402975639713	44.339782626227084	-132.40413759098496	174.84877674751985	112.64926229730182
941	4.7	-113.34911449786483	570.1408297705974	287.0914848011273	-277.3501517160947	379.0892306458865	43.80459564021705	-132.18891439244823	174.416901147144	111.7069206910989
942	4.705	-113.37030892759226	569.940196815879	286.9496656898791	-277.0164255305441	378.8394415708424	43.27155101823391	-131.96825890655205	173.9903473461226	110.77140060434496
943	4.71	-113.39057519093451	569.7413925454266	286.8079068366843	-276.6814844688406	378.5907547990355	42.741005675177	-131.7423037957172	173.56886197177732	109.8428723158773
944	4.715	-113.40986588551448	569.5442882501602	286.6663301694703	-276.3454496988347	378.3430013814776	42.213315271883985	-131.51119103409144	173.1522043406659	108.92151819519972
945	4.72	-113.42813327249105	569.3487600407028	286.5250581498214	-276.0084470151055	378.09601941702414	41.68883330793768	-131.27507170166479	172.74014645240652	108.00753202415473
946	4.725	-113.44532944707224	569.1546889291743	286.3842134629968	-275.6706066602526	377.8496544755527	41.16791024572825	-131.03410574116327	172.33247296072363	107.101118285687
947	4.73	-113.46140650632985	568.9619609010196	286.2439187124671	-275.3320631300224	377.6037599864026	40.65089266672848	-130.7884616786225	171.92898112213578	106.20249142090151
948	4.735	-113.47631671384524	568.7704669767786	286.1042961196538	-274.99295496254433	377.35819759134154	40.13812246080253	-130.53831630872955	171.52948072269947	105.31187505574378
949	4.74	-113.49001266073914	568.5801032637285	285.9654672295275	-274.65342451202804	377.1128374614731	39.62993604923906	-130.2838543462066	171.133793983217	104.42950119875846
950	4.745	-113.502447422665	568.3907709973436	285.82755262269	-274.3136177073568	376.86755857765354	39.126663642076544	-130.02526804468408	170.74175544331666	103.55560941151371
951	4.75	-113.51357471237128	568.202376572545	285.6906716345296	-273.97368379608923	376.6222489741311	38.62862853017346	-129.7627567846801	170.35321182481403	102.69044595341316
952	4.755	-113.52334902746513	568.0148315647303	285.55494208201316	-273.6337750744637	376.37680594527063	38.1361464123685	-129.49652663246215	169.96802187476868	101.83426290275176
953	4.76	-113.53172579303838	567.8280527405974	285.4204799986369	-273.2940466040768	376.1311362153714	37.64952475797484	-129.2267898717161	169.58605618866	100.98731725600709
954	4.765	-113.53866149884419	567.6419620588034	285.2873993780328	-272.95465591598617	375.88515607172457	37.169062204759385	-128.9537645100857	169.20719701411628	100.14987000749181
955	4.77	-113.5441138307426	567.4564866605211	285.15581192668543	-272.6157627030616	375.63879146119893	36.69504799247093	-128.677673762773	168.83133803564994	99.32218521162542
956	4.775	-113.54804179616042	567.2715588499842	285.025826826187	-272.27752850148175	375.3919780507732	36.22776143190157	-128.39874551550426	168.45838414086904	98.50452903021137
957	4.78	-113.55040584334166	567.0871160651346	284.89755050541777	-271.94011636234217	375.14466125256644	35.76747140939194	-128.11721176926693	168.08825116866018	97.69716876723174
958	4.785	-113.5511679741917	566.9031008385149	284.7710864230107	-271.60369051440335	374.89679621403917	35.3144359266233	-127.83330806931045	167.7208656398639	96.9003718937893
959	4.79	-113.55029185054813	566.7194607485727	284.6465348604188	-271.26841601906926	374.64834777416024	34.8689016754779	-127.54727292097772	167.35616447099474	96.11440506594079
